<svg width="147" height="29" viewBox="0 0 147 29" fill="none" xmlns="http://www.w3.org/2000/svg">
    <path d="M0.08 20.584L1.664 20.392V10.936L0.128 10.504V8.848L3.848 8.344H3.92L4.52 8.824V9.352L4.448 11.296H4.52C4.632 10.976 4.896 10.584 5.312 10.12C5.728 9.64 6.248 9.224 6.872 8.872C7.512 8.504 8.2 8.32 8.936 8.32C9.288 8.32 9.592 8.368 9.848 8.464V12.064C9.368 11.728 8.784 11.56 8.096 11.56C6.928 11.56 5.912 11.872 5.048 12.496V20.368L7.832 20.584V22H0.08V20.584ZM11.1129 18.256C11.1129 16.8 11.8409 15.704 13.2969 14.968C14.7689 14.232 16.6649 13.856 18.9849 13.84V13.288C18.9849 12.632 18.9129 12.12 18.7689 11.752C18.6409 11.384 18.3929 11.112 18.0249 10.936C17.6729 10.744 17.1529 10.648 16.4649 10.648C15.6809 10.648 14.9769 10.752 14.3529 10.96C13.7289 11.152 13.0809 11.408 12.4089 11.728L11.6649 10.192C11.9049 9.984 12.3049 9.736 12.8649 9.448C13.4409 9.16 14.1209 8.912 14.9049 8.704C15.6889 8.48 16.4969 8.368 17.3289 8.368C18.5609 8.368 19.5209 8.528 20.2089 8.848C20.9129 9.168 21.4169 9.68 21.7209 10.384C22.0249 11.088 22.1769 12.032 22.1769 13.216V20.56H23.4729V21.904C23.1529 21.984 22.6969 22.064 22.1049 22.144C21.5129 22.224 20.9929 22.264 20.5449 22.264C20.0009 22.264 19.6329 22.184 19.4409 22.024C19.2649 21.864 19.1769 21.536 19.1769 21.04V20.392C18.7449 20.872 18.1849 21.304 17.4969 21.688C16.8089 22.072 16.0329 22.264 15.1689 22.264C14.4329 22.264 13.7529 22.112 13.1289 21.808C12.5209 21.488 12.0329 21.032 11.6649 20.44C11.2969 19.832 11.1129 19.104 11.1129 18.256ZM16.7049 20.272C17.0409 20.272 17.4249 20.176 17.8569 19.984C18.2889 19.776 18.6649 19.528 18.9849 19.24V15.304C17.5449 15.304 16.4649 15.552 15.7449 16.048C15.0409 16.528 14.6889 17.152 14.6889 17.92C14.6889 18.688 14.8649 19.272 15.2169 19.672C15.5849 20.072 16.0809 20.272 16.7049 20.272ZM29.9866 22.264C28.9946 22.264 28.1066 22.032 27.3226 21.568C26.5386 21.088 25.9146 20.352 25.4506 19.36C24.9866 18.368 24.7546 17.128 24.7546 15.64C24.7546 14.296 25.0266 13.072 25.5706 11.968C26.1306 10.848 26.9466 9.96 28.0186 9.304C29.0906 8.648 30.3786 8.32 31.8826 8.32C32.4906 8.32 33.0666 8.384 33.6106 8.512V4.456L31.2586 4.12V2.8L36.2026 2.32H36.2746L36.9466 2.824V20.536H38.2426V21.904C37.0906 22.144 36.1386 22.264 35.3866 22.264C34.8746 22.264 34.5066 22.176 34.2826 22C34.0746 21.84 33.9706 21.512 33.9706 21.016V20.344C33.5546 20.904 32.9866 21.368 32.2666 21.736C31.5466 22.088 30.7866 22.264 29.9866 22.264ZM31.2346 20.272C31.7626 20.272 32.2266 20.168 32.6266 19.96C33.0426 19.736 33.3706 19.472 33.6106 19.168V10.432C33.4986 10.272 33.2586 10.136 32.8906 10.024C32.5386 9.912 32.1546 9.856 31.7386 9.856C30.7146 9.856 29.8906 10.304 29.2666 11.2C28.6586 12.08 28.3546 13.496 28.3546 15.448C28.3546 17.08 28.6186 18.296 29.1466 19.096C29.6746 19.88 30.3706 20.272 31.2346 20.272ZM42.8501 6.472C42.2741 6.472 41.8181 6.304 41.4821 5.968C41.1461 5.632 40.9781 5.2 40.9781 4.672C40.9781 4.064 41.1701 3.56 41.5541 3.16C41.9381 2.76 42.4501 2.56 43.0901 2.56C43.7301 2.56 44.2181 2.736 44.5541 3.088C44.8901 3.424 45.0581 3.848 45.0581 4.36C45.0581 5 44.8661 5.512 44.4821 5.896C44.0981 6.28 43.5621 6.472 42.8741 6.472H42.8501ZM41.5781 10.936L39.8741 10.48V8.872L44.2661 8.344H44.3141L44.9861 8.824V20.368L46.5941 20.56V22H39.8981V20.56L41.5781 20.344V10.936ZM49.6584 10.936L48.1224 10.504V8.848L52.1064 8.344H52.1784L52.7784 8.824V9.76L52.7544 10.336C53.3144 9.808 54.0424 9.352 54.9384 8.968C55.8344 8.584 56.7384 8.392 57.6504 8.392C58.6264 8.392 59.3864 8.576 59.9304 8.944C60.4904 9.296 60.8904 9.856 61.1304 10.624C61.3704 11.392 61.4904 12.432 61.4904 13.744V20.368L62.9544 20.56V22H56.7624V20.56L58.0584 20.368V13.744C58.0584 12.912 58.0024 12.264 57.8904 11.8C57.7784 11.32 57.5704 10.976 57.2664 10.768C56.9784 10.544 56.5624 10.432 56.0184 10.432C55.1064 10.432 54.1304 10.824 53.0904 11.608V20.344L54.5304 20.56V22H48.2664V20.56L49.6584 20.344V10.936ZM70.4583 28.48C68.3143 28.48 66.7623 28.144 65.8023 27.472C64.8423 26.8 64.3623 25.888 64.3623 24.736C64.3623 24.08 64.5783 23.456 65.0103 22.864C65.4583 22.288 65.9943 21.856 66.6183 21.568C65.8823 21.136 65.5143 20.448 65.5143 19.504C65.5143 18.96 65.6903 18.448 66.0423 17.968C66.3943 17.472 66.8503 17.088 67.4103 16.816C66.5303 16.48 65.8743 15.968 65.4423 15.28C65.0103 14.592 64.7943 13.776 64.7943 12.832C64.7943 11.92 65.0583 11.128 65.5863 10.456C66.1303 9.768 66.8503 9.24 67.7463 8.872C68.6583 8.504 69.6423 8.32 70.6983 8.32C72.5703 8.32 73.9623 8.68 74.8743 9.4C75.0823 9.128 75.4343 8.872 75.9303 8.632C76.4263 8.392 76.9383 8.272 77.4663 8.272H78.3063V10.888H75.8343C76.0743 11.4 76.1943 11.944 76.1943 12.52C76.2103 13.976 75.6983 15.144 74.6583 16.024C73.6183 16.888 72.1943 17.32 70.3863 17.32C69.6343 17.32 69.0023 17.264 68.4903 17.152C68.3303 17.36 68.2023 17.584 68.1063 17.824C68.0263 18.048 67.9863 18.248 67.9863 18.424C67.9863 18.952 68.1703 19.312 68.5383 19.504C68.9223 19.696 69.6023 19.792 70.5783 19.792H73.1463C76.4103 19.792 78.0423 20.976 78.0423 23.344C78.0423 24.336 77.6903 25.224 76.9863 26.008C76.2823 26.792 75.3463 27.4 74.1783 27.832C73.0103 28.264 71.7703 28.48 70.4583 28.48ZM70.6263 15.832C72.1143 15.832 72.8583 14.816 72.8583 12.784C72.8583 11.744 72.6663 10.984 72.2823 10.504C71.9143 10.008 71.3463 9.76 70.5783 9.76C69.8263 9.76 69.2423 10.008 68.8263 10.504C68.4263 10.984 68.2263 11.712 68.2263 12.688C68.2263 14.784 69.0263 15.832 70.6263 15.832ZM70.8183 26.824C71.8263 26.824 72.6983 26.576 73.4343 26.08C74.1703 25.6 74.5383 24.928 74.5383 24.064C74.5383 23.376 74.3543 22.88 73.9863 22.576C73.6343 22.272 72.9943 22.12 72.0663 22.12H69.4503C69.0503 22.12 68.6823 22.096 68.3463 22.048C67.9143 22.624 67.6983 23.312 67.6983 24.112C67.6983 24.992 67.9383 25.664 68.4183 26.128C68.8983 26.592 69.6983 26.824 70.8183 26.824ZM94.0605 15.352C94.0605 13.848 94.3565 12.568 94.9485 11.512C95.5565 10.456 96.3645 9.664 97.3725 9.136C98.3805 8.592 99.4765 8.32 100.66 8.32C102.676 8.32 104.228 8.944 105.316 10.192C106.42 11.424 106.972 13.104 106.972 15.232C106.972 16.752 106.668 18.048 106.06 19.12C105.468 20.176 104.668 20.968 103.66 21.496C102.668 22.008 101.572 22.264 100.372 22.264C98.3725 22.264 96.8205 21.648 95.7165 20.416C94.6125 19.168 94.0605 17.48 94.0605 15.352ZM100.564 20.704C102.372 20.704 103.276 18.96 103.276 15.472C103.276 13.648 103.06 12.264 102.628 11.32C102.196 10.36 101.492 9.88 100.516 9.88C98.6605 9.88 97.7325 11.624 97.7325 15.112C97.7325 16.936 97.9565 18.328 98.4045 19.288C98.8685 20.232 99.5885 20.704 100.564 20.704ZM119.978 22.24C119.45 22.24 119.066 22.128 118.826 21.904C118.586 21.68 118.466 21.344 118.466 20.896V20.248C118.034 20.776 117.426 21.248 116.642 21.664C115.858 22.064 115.074 22.264 114.29 22.264C112.754 22.264 111.658 21.872 111.002 21.088C110.346 20.288 110.018 18.976 110.018 17.152V10.384L108.818 10.048V8.68L112.898 8.368H112.922L113.402 8.704V17.152C113.402 18.32 113.546 19.136 113.834 19.6C114.122 20.064 114.658 20.296 115.442 20.296C116.386 20.296 117.266 19.928 118.082 19.192V10.384L116.474 10.024V8.68L120.818 8.368H120.866L121.442 8.704V20.512H122.786L122.762 21.88C122.698 21.896 122.402 21.96 121.874 22.072C121.346 22.184 120.714 22.24 119.978 22.24ZM124.482 20.584L126.066 20.392V10.936L124.53 10.504V8.848L128.25 8.344H128.322L128.922 8.824V9.352L128.85 11.296H128.922C129.034 10.976 129.298 10.584 129.714 10.12C130.13 9.64 130.65 9.224 131.274 8.872C131.914 8.504 132.602 8.32 133.338 8.32C133.69 8.32 133.994 8.368 134.25 8.464V12.064C133.77 11.728 133.186 11.56 132.498 11.56C131.33 11.56 130.314 11.872 129.45 12.496V20.368L132.234 20.584V22H124.482V20.584ZM138.443 20.032C138.571 20.224 138.859 20.408 139.307 20.584C139.771 20.744 140.235 20.824 140.699 20.824C141.451 20.824 142.011 20.672 142.379 20.368C142.763 20.048 142.955 19.632 142.955 19.12C142.955 18.592 142.723 18.168 142.259 17.848C141.795 17.512 141.011 17.104 139.907 16.624L139.235 16.336C138.131 15.872 137.307 15.312 136.763 14.656C136.219 14 135.947 13.152 135.947 12.112C135.947 11.392 136.163 10.752 136.595 10.192C137.027 9.616 137.635 9.168 138.419 8.848C139.203 8.528 140.107 8.368 141.131 8.368C141.883 8.368 142.523 8.416 143.051 8.512C143.595 8.608 144.163 8.736 144.755 8.896C145.075 9.008 145.315 9.072 145.475 9.088V12.232H143.579L143.027 10.408C142.931 10.248 142.715 10.104 142.379 9.976C142.043 9.848 141.659 9.784 141.227 9.784C140.571 9.784 140.043 9.928 139.643 10.216C139.259 10.488 139.067 10.872 139.067 11.368C139.067 11.816 139.203 12.192 139.475 12.496C139.747 12.784 140.043 13.008 140.363 13.168C140.683 13.328 141.275 13.592 142.139 13.96C143.003 14.328 143.715 14.68 144.275 15.016C144.851 15.352 145.323 15.792 145.691 16.336C146.075 16.864 146.267 17.512 146.267 18.28C146.267 19.464 145.803 20.424 144.875 21.16C143.947 21.896 142.611 22.264 140.867 22.264C140.051 22.264 139.315 22.192 138.659 22.048C138.019 21.904 137.275 21.712 136.427 21.472L135.899 21.304V18.136H137.891L138.443 20.032Z" fill="white"/>
    <path d="M87.8613 6.322C88.0346 5.282 88.3726 4.346 88.8753 3.514C89.3953 2.682 90.054 2.02333 90.8513 1.538C91.6486 1.05267 92.5413 0.809999 93.5293 0.809999C94.448 0.809999 95.176 0.913999 95.7133 1.122L94.9853 3.202C94.4826 2.82067 93.902 2.63 93.2433 2.63C92.602 2.63 92.134 2.87267 91.8393 3.358C91.562 3.84333 91.354 4.58867 91.2153 5.594L90.9553 7.492H93.8153L93.4773 9.442H90.6953L89.2653 20.986C88.988 23.118 88.3553 24.9033 87.3673 26.342C86.3966 27.7807 85.0966 28.5087 83.4673 28.526C83.0686 28.5433 82.6526 28.526 82.2193 28.474C81.7686 28.422 81.4133 28.3613 81.1533 28.292L81.8293 26.108C82.0546 26.212 82.384 26.3247 82.8173 26.446C83.2333 26.5847 83.5713 26.654 83.8313 26.654C84.2993 26.654 84.6633 26.42 84.9233 25.952C85.2006 25.5013 85.4 24.8167 85.5213 23.898L87.3153 9.442H85.6513L85.8853 8.298L87.6533 7.544L87.8613 6.322Z" fill="#CC8E15"/>
</svg>
