<svg width="10" height="18" viewBox="0 0 10 18" fill="none" xmlns="http://www.w3.org/2000/svg">
<path d="M5.112 17.216C4.104 17.216 3.36 16.984 2.88 16.52C2.4 16.056 2.16 15.32 2.16 14.312V5.504H0.6V4.256C0.728 4.208 0.96 4.128 1.296 4.016C1.632 3.888 1.888 3.784 2.064 3.704C2.336 3.496 2.568 3.136 2.76 2.624C2.904 2.288 3.168 1.456 3.552 0.128H5.472L5.568 3.656H9.24V5.504H5.592V12.248C5.592 13.144 5.616 13.776 5.664 14.144C5.712 14.512 5.816 14.752 5.976 14.864C6.136 14.96 6.416 15.008 6.816 15.008C7.216 15.008 7.632 14.968 8.064 14.888C8.496 14.792 8.856 14.68 9.144 14.552L9.6 15.896C9.152 16.232 8.496 16.536 7.632 16.808C6.768 17.08 5.928 17.216 5.112 17.216Z" fill="white"/>
</svg>
